<?xml version="1.0" standalone="no"?>
<!DOCTYPE svg PUBLIC "-//W3C//DTD SVG 20010904//EN"
 "http://www.w3.org/TR/2001/REC-SVG-20010904/DTD/svg10.dtd">
<svg version="1.0" xmlns="http://www.w3.org/2000/svg"
 width="141.000000pt" height="141.000000pt" viewBox="0 0 141.000000 141.000000"
 preserveAspectRatio="xMidYMid meet">
<metadata>
Created by potrace 1.14, written by Peter Selinger 2001-2017
</metadata>
<g transform="translate(0.000000,141.000000) scale(0.100000,-0.100000)"
fill="#000000" stroke="none">
<path d="M175 954 c-19 -30 -61 -188 -72 -272 -17 -137 -1 -303 32 -316 39
-15 70 31 100 149 58 228 89 325 105 325 3 0 4 -22 0 -49 -9 -68 -3 -187 10
-212 8 -14 19 -19 38 -17 30 3 43 24 67 108 21 72 36 110 44 110 3 0 7 -24 9
-52 6 -113 55 -141 154 -90 45 24 55 27 53 13 -3 -22 15 -59 31 -65 32 -12 68
19 153 133 49 66 92 117 95 114 3 -4 6 -19 6 -35 0 -15 4 -28 9 -28 16 0 22
31 15 79 -5 41 -3 49 20 70 14 14 29 22 32 18 4 -4 1 -35 -6 -69 -7 -35 -14
-74 -17 -88 -2 -14 -10 -50 -17 -81 -30 -134 -12 -291 38 -324 58 -38 118 16
226 200 68 118 74 136 43 137 -3 0 -32 -43 -62 -96 -73 -125 -130 -202 -159
-215 -21 -10 -24 -8 -38 26 -21 50 -21 257 0 292 2 3 7 26 10 51 4 25 10 62
15 83 16 70 2 126 -31 127 -5 0 -25 -15 -45 -33 -36 -32 -40 -33 -78 -22 -48
14 -94 5 -132 -24 -30 -25 -83 -99 -83 -118 0 -27 -129 -143 -158 -143 -14 0
-28 47 -31 105 -4 63 -13 80 -45 83 -31 2 -43 -19 -81 -141 -15 -51 -31 -85
-36 -81 -6 4 -10 48 -9 108 3 160 2 164 -22 177 -18 10 -24 8 -37 -10 -21 -27
-50 -111 -101 -291 -23 -80 -47 -154 -53 -165 -10 -19 -11 -19 -18 5 -8 28 -4
271 5 310 4 14 9 38 12 54 2 16 14 54 25 85 11 31 22 63 25 72 10 28 -23 30
-41 3z m795 -72 c0 -4 -33 -50 -73 -103 -141 -186 -142 -187 -134 -100 10 110
77 212 147 223 26 4 60 -7 60 -20z"/>
</g>
</svg>
