<?xml version="1.0" standalone="no"?>
<!DOCTYPE svg PUBLIC "-//W3C//DTD SVG 20010904//EN"
 "http://www.w3.org/TR/2001/REC-SVG-20010904/DTD/svg10.dtd">
<svg version="1.0" xmlns="http://www.w3.org/2000/svg"
 width="182.000000pt" height="182.000000pt" viewBox="0 0 182.000000 182.000000"
 preserveAspectRatio="xMidYMid meet">
<metadata>
Created by potrace 1.14, written by Peter Selinger 2001-2017
</metadata>
<g transform="translate(0.000000,182.000000) scale(0.100000,-0.100000)"
fill="#000000" stroke="none">
<path d="M411 1123 c-48 -96 -86 -380 -67 -506 14 -93 68 -113 105 -39 10 20
37 111 61 202 24 91 51 183 62 205 l18 40 -5 -85 c-7 -96 5 -174 29 -198 15
-15 19 -15 43 -2 22 12 32 32 54 109 32 108 49 135 49 76 0 -60 18 -113 45
-131 27 -18 77 -8 133 26 25 16 32 17 32 5 0 -34 23 -65 49 -65 40 0 59 18
151 144 l85 116 9 -35 c15 -55 31 -36 29 32 -2 55 0 62 27 88 38 36 38 33 0
-145 -45 -209 -41 -351 12 -407 61 -65 134 0 272 243 39 68 46 88 35 94 -20
13 -31 0 -98 -118 -69 -121 -134 -202 -160 -202 -47 0 -55 166 -16 372 14 76
25 150 25 166 0 59 -47 69 -97 20 -29 -28 -35 -30 -58 -20 -84 38 -176 -13
-229 -128 -24 -52 -139 -163 -164 -158 -19 4 -30 36 -31 95 -1 56 -15 89 -41
96 -33 8 -55 -25 -91 -136 -39 -125 -51 -112 -42 49 6 123 -3 157 -40 152 -31
-4 -68 -85 -113 -248 -75 -274 -94 -294 -94 -104 0 131 21 263 55 349 30 74
31 85 5 85 -13 0 -26 -13 -39 -37z m821 -52 c8 -7 -175 -251 -199 -265 -14 -8
-15 -2 -9 49 3 31 16 79 27 105 22 51 82 115 114 123 21 5 55 -1 67 -12z"/>
</g>
</svg>
